<svg id="Capa_1" enable-background="new 0 0 512 512" height="512" viewBox="0 0 512 512" width="512" xmlns="http://www.w3.org/2000/svg"><g><path d="m133.365 0h-78.2c-4.92 0-9.527 2.412-12.329 6.456-2.803 4.044-3.443 9.204-1.716 13.81l48.2 128.529c2.258 6.023 7.974 9.737 14.047 9.737 1.75 0 3.53-.309 5.265-.959 7.757-2.909 11.687-11.555 8.778-19.312l-7.899-21.064 20.353-87.197h3.501c8.284 0 15-6.716 15-15s-6.716-15-15-15z" fill="#99b7c1"/><path d="m456.832 128.529h-353.467c-8.284 0-15 6.716-15 15v313.305c0 30.419 24.748 55.166 55.167 55.166h273.136c30.42 0 55.168-24.747 55.168-55.166v-313.305c0-8.284-6.719-15-15.004-15z" fill="#faf3f4"/><path d="m456.832 128.529h-176.733v383.471h136.568c30.42 0 55.168-24.747 55.168-55.166v-313.305c.001-8.284-6.718-15-15.003-15z" fill="#daebeb"/><path d="m456.832 128.529h-353.467c-8.284 0-15 6.716-15 15v183.167c0 27.761 22.585 50.346 50.347 50.346s50.348-22.585 50.348-50.346v-38.561c0-11.221 9.128-20.349 20.347-20.349 11.22 0 20.348 9.128 20.348 20.349v35.346c0 27.763 22.586 50.349 50.346 50.349 27.762 0 50.348-22.586 50.348-50.349v-35.346c0-11.221 9.127-20.349 20.348-20.349 11.219 0 20.346 9.128 20.346 20.349v70.694c0 27.76 22.586 50.345 50.348 50.345s50.348-22.585 50.348-50.345v-215.3c-.003-8.284-6.722-15-15.007-15z" fill="#ba5f19"/><path d="m456.832 128.529h-176.733v245.301c27.762 0 50.348-22.586 50.348-50.349v-35.346c0-11.221 9.127-20.349 20.348-20.349 11.219 0 20.346 9.128 20.346 20.349v70.694c0 27.76 22.586 50.345 50.348 50.345s50.348-22.585 50.348-50.345v-215.3c-.001-8.284-6.72-15-15.005-15z" fill="#8d4813"/><path d="m470.25 136.821-32.133-64.264c-2.541-5.082-7.734-8.292-13.416-8.292h-306.336c-6.971 0-13.023 4.803-14.607 11.591l-15 64.264c-1.041 4.458.012 9.146 2.856 12.732 2.846 3.586 7.173 5.677 11.751 5.677h353.466c5.199 0 10.027-2.691 12.76-7.114 2.735-4.422 2.983-9.944.659-14.594z" fill="#cbdfe4"/><path d="m470.25 136.821-32.133-64.264c-2.541-5.082-7.734-8.292-13.416-8.292h-144.602v94.264h176.732c5.199 0 10.027-2.691 12.76-7.114 2.735-4.422 2.983-9.944.659-14.594z" fill="#99b7c1"/><path d="m408.634 0h-275.27c-6.971 0-13.023 4.802-14.607 11.591l-15 64.266c-1.041 4.458.012 9.146 2.856 12.732 2.846 3.586 7.173 5.677 11.751 5.677h306.336c8.283 0 15-6.716 15-15v-48.2c.001-17.13-13.937-31.066-31.066-31.066z" fill="#faf3f4"/><path d="m439.701 79.266v-48.2c0-17.13-13.938-31.066-31.067-31.066h-128.535v94.266h144.602c8.283 0 15-6.716 15-15z" fill="#daebeb"/></g></svg>