<svg id="Capa_1" enable-background="new 0 0 512.003 512.003" height="512" viewBox="0 0 512.003 512.003" width="512" xmlns="http://www.w3.org/2000/svg"><g><path d="m503.076 247.077c0-57.489-46.77-104.26-104.26-104.26h-321.334c-8.285 0-15 6.716-15 15v178.52c0 57.488 46.771 104.258 104.259 104.258h142.815c52.724 0 96.427-39.341 103.31-90.208 50.868-6.883 90.21-50.585 90.21-103.31zm-89.26 72.737v-145.474c33.783 6.955 59.26 36.926 59.26 72.737s-25.477 65.782-59.26 72.737z" fill="#faf3f4"/><path d="m398.816 142.817h-160.666v297.777h71.407c52.724 0 96.427-39.341 103.31-90.208 50.867-6.883 90.209-50.585 90.209-103.31 0-57.488-46.771-104.259-104.26-104.259zm15 176.997v-145.474c33.783 6.955 59.26 36.926 59.26 72.737s-25.477 65.782-59.26 72.737z" fill="#daebeb"/><g><g><g><g><path d="m238.135 101.413c-2.627 0-5.287-.689-7.703-2.14-7.104-4.262-9.407-13.476-5.145-20.579 3.559-5.932 1.84-12.529-1.504-23.678-3.817-12.724-9.045-30.148 1.504-47.73 4.263-7.104 13.477-9.409 20.58-5.145 7.104 4.262 9.407 13.476 5.145 20.579-3.559 5.932-1.84 12.528 1.505 23.677 3.816 12.723 9.045 30.149-1.505 47.732-2.812 4.686-7.781 7.284-12.877 7.284z" fill="#ba5f19"/></g></g></g><g><g><g><path d="m309.542 101.413c-2.626 0-5.286-.689-7.703-2.14-7.103-4.262-9.406-13.476-5.145-20.579 3.559-5.932 1.84-12.529-1.505-23.678-3.817-12.724-9.045-30.148 1.505-47.73 4.262-7.104 13.476-9.409 20.58-5.145 7.104 4.262 9.406 13.476 5.145 20.579-3.559 5.932-1.84 12.528 1.505 23.677 3.817 12.723 9.045 30.149-1.505 47.732-2.812 4.686-7.781 7.284-12.877 7.284z" fill="#8d4813"/></g></g></g><g><g><g><path d="m166.728 101.413c-2.627 0-5.287-.689-7.704-2.14-7.104-4.263-9.407-13.477-5.145-20.58 3.56-5.932 1.84-12.528-1.505-23.678-3.816-12.723-9.044-30.148 1.504-47.729 4.262-7.104 13.476-9.409 20.58-5.145 7.104 4.262 9.408 13.476 5.146 20.579-3.559 5.931-1.84 12.527 1.505 23.676 3.817 12.724 9.045 30.15-1.506 47.733-2.812 4.687-7.78 7.284-12.875 7.284z" fill="#ba5f19"/></g></g></g></g><path d="m452.373 410.595h-35.705-357.037-35.704c-8.285 0-15 6.716-15 15s6.715 15 15 15h20.704v20.704c0 27.958 26.75 50.704 59.629 50.704h267.778c32.88 0 59.629-22.746 59.629-50.704v-20.704h20.705c8.283 0 15-6.716 15-15 .001-8.285-6.716-15-14.999-15z" fill="#cbdfe4"/><path d="m452.373 410.595h-35.705-178.518v101.408h133.889c32.88 0 59.629-22.746 59.629-50.704v-20.704h20.705c8.283 0 15-6.716 15-15 0-8.285-6.717-15-15-15z" fill="#99b7c1"/><path d="m252.517 46.396c-3.345-11.148-5.063-17.745-1.505-23.677 4.262-7.104 1.958-16.317-5.145-20.579-2.421-1.453-5.086-2.126-7.717-2.123v101.395c5.09-.004 10.053-2.602 12.862-7.284 10.55-17.583 5.321-35.009 1.505-47.732z" fill="#8d4813"/></g></svg>