<svg id="Capa_1" enable-background="new 0 0 512 512" height="512" viewBox="0 0 512 512" width="512" xmlns="http://www.w3.org/2000/svg"><path d="m261.031 232.633v-197.236l-5.031-7.594h-210.916c-24.859 0-45.084 20.225-45.084 45.084v109.378l6 9.056v41.311h255.031z" fill="#f40055"/><path d="m506 232.633v-41.311l6-9.056v-109.379c0-24.859-20.225-45.084-45.084-45.084h-210.916v204.83z" fill="#c20044"/><path d="m260.569 253.523h-254.569v64.246l-6 11.966v109.378c0 24.859 20.225 45.084 45.084 45.084h210.916l4.569-5.546z" fill="#406bd4"/><path d="m506 253.523h-250v230.674h210.916c24.859 0 45.084-20.225 45.084-45.084v-109.378l-6-11.966z" fill="#3257b0"/><path d="m0 182.265v147.47h256l6.776-13.836v-121.998l-6.776-11.636z" fill="#fff"/><path d="m256 182.265h256v147.47h-256z" fill="#cee5f5"/><path d="m277.776 287.769h-43.553v-46.298h43.553z" fill="#fff"/><path d="m257.223 169.63-1.223-2.365h-75.564c-8.284 0-15 6.716-15 15v29.206l1.267 1.836v25.614l-1.267 2.55v46.298l1.118 1.775.486 26.871-.863 1.355c.081.539.168 1.075.262 1.61 3.824 21.822 18.262 40.038 37.777 49.111l3.133-.844 25.325 5.276 1.55 1.763h21.776l1.223-1.511z" fill="#f40055"/><path d="m331.564 167.265h-75.564v207.42h21.776l1.905-1.752c8.263 0 16.527-2.206 23.839-4.958l4.258.518c19.997-9.294 34.664-28.188 38.046-50.724 0 0-1.413-1.722-1.371-2.039l.396-25.626 1.716-2.336v-46.298l-1.347-1.001v-27.676l1.347-1.323v-29.206c-.001-8.283-6.716-14.999-15.001-14.999z" fill="#c20044"/><path d="m256 211.471h-21.776v-44.206h-30v44.206h-38.788v30h38.788v46.298h-38.788v20.032c0 3.387.258 6.715.746 9.968h38.042v50.707c8.549 3.975 18.064 6.209 28.096 6.209h1.904v-56.916h21.776l1.223-2.336v-102.095z" fill="#fff"/><path d="m346.564 241.471v-30h-38.788v-44.206h-30v44.206h-21.776v30h21.776v46.298h-21.776v30h21.776v56.916h1.904c10.032 0 19.547-2.235 28.096-6.209v-50.707h38.042c.488-3.253.746-6.581.746-9.968v-20.032h-38.788v-46.298z" fill="#cee5f5"/><path d="m190.672 148.307c-8.284 0-15 6.716-15 15v24.39c0 8.284 6.716 15 15 15s15-6.716 15-15v-24.39c0-8.285-6.716-15-15-15z" fill="#406bd4"/><path d="m234.224 137.315c-8.284 0-15 6.716-15 15v35.381c0 8.284 6.716 15 15 15s15-6.716 15-15v-35.381c0-8.284-6.716-15-15-15z" fill="#406bd4"/><path d="m277.776 137.315c-8.284 0-15 6.716-15 15v35.381c0 8.284 6.716 15 15 15s15-6.716 15-15v-35.381c0-8.284-6.715-15-15-15z" fill="#3257b0"/><path d="m321.328 148.307c-8.284 0-15 6.716-15 15v24.39c0 8.284 6.716 15 15 15s15-6.716 15-15v-24.39c0-8.285-6.716-15-15-15z" fill="#3257b0"/><path d="m204.224 211.471h30v30h-30z" fill="#f40055"/><path d="m277.776 211.471h30v30h-30z" fill="#c20044"/><path d="m204.224 287.769h30v30h-30z" fill="#f40055"/><path d="m277.776 287.769h30v30h-30z" fill="#c20044"/><path d="m234.224 241.471h43.553v46.298h-43.553z" fill="#f40055"/><path d="m256 241.471h21.776v46.298h-21.776z" fill="#c20044"/></svg>