<svg id="Capa_1" enable-background="new 0 0 512 512" height="512" viewBox="0 0 512 512" width="512" xmlns="http://www.w3.org/2000/svg"><g><g><g><path d="m61.794 289.683c-7.765 0-15.535-1.483-22.961-4.454-31.628-12.655-47.065-48.681-34.41-80.308l46.31-115.737c12.656-31.627 48.684-47.06 80.311-34.409 15.321 6.13 27.339 17.859 33.838 33.028 6.499 15.168 6.702 31.959.572 47.28l-46.31 115.737c-6.131 15.32-17.86 27.338-33.029 33.836-7.818 3.35-16.066 5.027-24.321 5.027z" fill="#714c2f"/></g><g><path d="m450.293 289.65c-24.528 0-47.781-14.702-57.436-38.83l-46.31-115.737c-12.654-31.628 2.781-67.653 34.41-80.308 15.321-6.13 32.113-5.927 47.282.572s26.899 18.516 33.029 33.837l46.31 115.736c12.655 31.626-2.78 67.652-34.41 80.308-7.5 3.001-15.251 4.422-22.875 4.422z" fill="#523522"/></g></g><g><path d="m367.228 441.941h-222.455c-48.688 0-88.3-39.61-88.3-88.299v-98.245c0-24.646 10.408-48.345 28.557-65.02l14.272-13.114c11.982-11.009 18.854-26.656 18.854-42.929 0-48.688 39.611-88.3 88.3-88.3h99.088c48.688 0 88.3 39.611 88.3 88.3 0 16.272 6.872 31.919 18.854 42.929l14.272 13.113c18.147 16.675 28.556 40.374 28.556 65.021v98.245c.001 48.689-39.61 88.299-88.298 88.299z" fill="#f1c992"/></g><g><path d="m426.971 190.377-14.272-13.113c-11.982-11.01-18.854-26.657-18.854-42.929 0-48.688-39.611-88.3-88.3-88.3h-49.545v395.907h111.228c48.688 0 88.299-39.61 88.299-88.299v-98.245c0-24.647-10.409-48.346-28.556-65.021z" fill="#eebb75"/></g><path d="m276.207 465.965h-40.414c-43.669 0-79.069-35.401-79.069-79.069v-47.649c0-54.829 44.447-99.276 99.276-99.276 54.829 0 99.276 44.447 99.276 99.276v47.649c.001 43.669-35.4 79.069-79.069 79.069z" fill="#f8e5ca"/><g><path d="m256 239.971v225.995h20.207c43.669 0 79.069-35.401 79.069-79.069v-47.649c.001-54.83-44.447-99.277-99.276-99.277z" fill="#f1c992"/></g><path d="m314.154 368.467c-6.953-4.504-16.24-2.517-20.744 4.436-2.595 4.006-7.821 5.198-11.895 2.711l-10.515-6.415v-33.058h8.244c8.284 0 15-6.716 15-15s-6.716-15-15-15h-46.488c-8.284 0-15 6.716-15 15s6.716 15 15 15h8.244v33.058l-10.517 6.416c-4.074 2.485-9.299 1.295-11.893-2.712-4.503-6.953-13.791-8.938-20.744-4.436-6.954 4.503-8.939 13.79-4.437 20.744 7.443 11.492 19.769 17.756 32.434 17.756 6.898 0 13.898-1.858 20.263-5.742l9.893-6.035 9.892 6.034c18.055 11.016 41.202 5.736 52.698-12.013 4.505-6.954 2.519-16.241-4.435-20.744z" fill="#714c2f"/><g><path d="m314.154 368.467c-6.953-4.504-16.24-2.517-20.744 4.436-2.595 4.006-7.821 5.198-11.895 2.711l-10.515-6.415v-33.058h8.244c8.284 0 15-6.716 15-15s-6.716-15-15-15h-23.244v89.049l9.892 6.034c18.055 11.016 41.202 5.736 52.698-12.013 4.504-6.954 2.518-16.241-4.436-20.744z" fill="#523522"/></g><g><path d="m190 221c-8.284 0-15-6.716-15-15v-20c0-8.284 6.716-15 15-15s15 6.716 15 15v20c0 8.284-6.716 15-15 15z" fill="#444"/></g><g><path d="m322 221c-8.284 0-15-6.716-15-15v-20c0-8.284 6.716-15 15-15s15 6.716 15 15v20c0 8.284-6.716 15-15 15z" fill="#292929"/></g></g></svg>