<svg id="Capa_1" enable-background="new 0 0 512 512" height="512" viewBox="0 0 512 512" width="512" xmlns="http://www.w3.org/2000/svg"><path d="m466.916 27.803h-421.832c-24.859 0-45.084 20.225-45.084 45.084v366.226c0 24.859 20.225 45.084 45.084 45.084h421.832c24.859 0 45.084-20.225 45.084-45.084v-366.226c0-24.859-20.225-45.084-45.084-45.084z" fill="#f0f9ff"/><path d="m466.916 27.803h-210.916v456.394h210.916c24.859 0 45.084-20.225 45.084-45.084v-366.226c0-24.859-20.225-45.084-45.084-45.084z" fill="#cee5f5"/><path d="m298.425 484.197v-185.772h213.575v-84.85h-213.575v-185.772h-84.85v185.772h-213.575v84.85h213.575v185.772z" fill="#f40055"/><path d="m298.425 213.575v-185.772h-42.425v456.394h42.425v-185.772h213.575v-84.85z" fill="#c20044"/></svg>