<svg id="Capa_1" enable-background="new 0 0 512 512" height="512" viewBox="0 0 512 512" width="512" xmlns="http://www.w3.org/2000/svg"><g><g><path d="m377.429 211.366c-6.107 0-11.664-3.725-13.941-9.483l-19.467-49.213c-10.536-26.634-8.462-56.191 5.691-81.093l31.143-54.793c5.957-10.479 16.709-16.754 28.761-16.784h.088c12.019 0 22.764 6.215 28.758 16.639l35.023 60.908c13.389 23.282 16.185 51.244 7.672 76.716l-13.528 40.481c-1.899 5.684-7 9.692-12.972 10.193l-75.967 6.376c-.422.036-.843.053-1.261.053z" fill="#d98f19"/></g><g><path d="m134.571 211.366c-.418 0-.839-.018-1.261-.053l-75.966-6.376c-5.972-.501-11.073-4.509-12.972-10.193l-13.529-40.481c-8.513-25.472-5.717-53.434 7.671-76.716l35.024-60.907c5.994-10.424 16.74-16.64 28.758-16.64h.087c12.054.03 22.806 6.304 28.762 16.783l31.144 54.794c14.152 24.902 16.227 54.459 5.691 81.093l-19.468 49.213c-2.278 5.758-7.834 9.483-13.941 9.483z" fill="#e69f34"/></g><g><path d="m275.922 512h-39.844c-16.002 0-30.94-8.594-38.984-22.428l-66.274-113.975c-4.146-7.131-9.548-13.315-16.057-18.384l-48.777-37.977c-18.308-14.254-28.809-35.737-28.809-58.94v-43.885c0-20.945 8.873-41.055 24.343-55.174l68.481-62.5c17.395-15.875 39.944-24.619 63.495-24.619h125.006c23.55 0 46.1 8.743 63.495 24.619l68.481 62.5c15.471 14.119 24.343 34.229 24.343 55.174v43.885c0 23.204-10.5 44.688-28.809 58.94l-48.777 37.978c-6.509 5.067-11.911 11.253-16.058 18.383l-66.272 113.976c-8.043 13.833-22.981 22.427-38.983 22.427z" fill="#ffb64c"/></g><g><path d="m450.48 161.236-68.481-62.5c-17.396-15.875-39.945-24.619-63.495-24.619h-62.504v437.883h19.922c16.002 0 30.94-8.594 38.984-22.428l66.272-113.976c4.146-7.13 9.549-13.315 16.058-18.383l48.777-37.978c18.309-14.253 28.809-35.736 28.809-58.94v-43.885c0-20.945-8.872-41.055-24.342-55.174z" fill="#e69f34"/></g><g><path d="m160 289c-8.284 0-15-6.716-15-15v-30c0-8.284 6.716-15 15-15s15 6.716 15 15v30c0 8.284-6.716 15-15 15z" fill="#444"/></g><g><path d="m352 289c-8.284 0-15-6.716-15-15v-30c0-8.284 6.716-15 15-15s15 6.716 15 15v30c0 8.284-6.716 15-15 15z" fill="#292929"/></g><g><path d="m283.691 430.977c-17.597-7.984-37.785-7.984-55.382 0l-51.658 23.438 20.443 35.157c8.044 13.834 22.982 22.428 38.984 22.428h39.844c16.002 0 30.94-8.594 38.984-22.428l20.443-35.158z" fill="#966641"/></g><g><path d="m283.691 430.977c-8.799-3.992-18.245-5.988-27.691-5.988v87.011h19.922c16.002 0 30.94-8.594 38.984-22.428l20.443-35.158z" fill="#7e5436"/></g></g></svg>