<svg id="Capa_1" enable-background="new 0 0 512 512" height="512" viewBox="0 0 512 512" width="512" xmlns="http://www.w3.org/2000/svg"><g><g><path d="m256.022 481.931c-2.81 0-5.621-.788-8.084-2.365l-136.275-87.199c-35.564-22.757-60.027-59.68-67.118-101.302l-31.822-186.8c-.893-5.241 1.055-10.562 5.12-13.988s9.643-4.443 14.653-2.678l47.329 16.683 1.012-50.177c.11-5.46 3.179-10.429 8.013-12.972 4.833-2.543 10.667-2.257 15.229.743l41.937 27.591 13.095-48.461c1.424-5.271 5.6-9.352 10.903-10.654 5.301-1.302 10.894.379 14.598 4.391l34.045 36.869 24.336-43.886c2.645-4.768 7.668-7.726 13.119-7.726h.019c5.458.007 10.483 2.979 13.118 7.759l24.225 43.948 34.139-36.782c3.714-4.002 9.313-5.671 14.609-4.354 5.299 1.315 9.465 5.407 10.875 10.682l12.972 48.495 42.007-27.485c4.571-2.99 10.403-3.259 15.231-.705 4.826 2.556 7.883 7.532 7.979 12.993l.884 50.179 47.37-16.562c5.014-1.751 10.577-.724 14.633 2.704s5.997 8.744 5.104 13.979l-31.768 186.237c-7.097 41.607-31.558 78.519-67.111 101.269l-136.29 87.209c-2.466 1.577-5.275 2.365-8.086 2.365z" fill="#ae774e"/></g><g><path d="m494.173 90.873c-4.056-3.427-9.619-4.455-14.633-2.704l-47.37 16.562-.884-50.179c-.097-5.46-3.153-10.437-7.979-12.993-4.828-2.555-10.66-2.285-15.231.705l-42.007 27.485-12.972-48.495c-1.41-5.274-5.576-9.366-10.875-10.682-5.296-1.317-10.896.351-14.609 4.354l-34.139 36.782-24.225-43.949c-2.635-4.78-7.659-7.752-13.118-7.759-.006 0-.013 0-.019 0-.03 0-.06.003-.09.003v481.928c2.811 0 5.62-.788 8.085-2.365l136.29-87.209c35.554-22.75 60.015-59.661 67.111-101.269l31.768-186.237c.894-5.234-1.048-10.551-5.103-13.978z" fill="#966641"/></g><g><path d="m413.859 238.552 1.255-39.883c.263-8.371-9.211-13.387-15.986-8.463l-32.287 23.464c-5.888 4.279-14.231 1.091-15.765-6.025l-8.411-39.028c-1.764-8.185-12.165-10.768-17.553-4.359l-25.685 30.551c-4.686 5.574-13.557 4.485-16.756-2.058l-17.535-35.87c-3.676-7.52-14.388-7.533-18.084-.023l-17.627 35.826c-3.215 6.534-12.089 7.601-16.761 2.015l-25.607-30.617c-5.372-6.423-15.779-3.866-17.564 4.314l-8.511 39.007c-1.552 7.111-9.903 10.279-15.78 5.985l-32.228-23.547c-6.762-4.941-16.25.051-16.008 8.423l1.153 39.887c.21 7.279-7.136 12.368-13.876 9.613l-50.598-20.678 10.899 63.98c7.091 41.622 31.554 78.545 67.118 101.302l136.275 87.199c2.464 1.577 5.274 2.365 8.084 2.365 2.811 0 5.62-.788 8.085-2.365l136.29-87.209c35.554-22.75 60.015-59.661 67.111-101.269l10.818-63.423-50.617 20.536c-6.745 2.736-14.079-2.372-13.849-9.65z" fill="#f8e5ca"/></g><g><path d="m427.71 248.201c-6.748 2.738-14.081-2.37-13.852-9.649l1.255-39.883c.263-8.371-9.211-13.387-15.986-8.463l-32.287 23.464c-5.888 4.279-14.231 1.091-15.765-6.025l-8.411-39.028c-1.764-8.185-12.165-10.768-17.553-4.359l-25.685 30.551c-4.686 5.574-13.557 4.485-16.756-2.058l-17.535-35.87c-1.851-3.787-5.487-5.666-9.113-5.643v330.692c2.811 0 5.62-.788 8.085-2.365l136.29-87.209c35.554-22.75 60.015-59.661 67.111-101.269l10.818-63.423z" fill="#f4d7af"/></g><path d="m182.022 298.263c-8.284 0-15 6.716-15 15v30c0 8.284 6.716 15 15 15s15-6.716 15-15v-30c0-8.284-6.716-15-15-15z" fill="#444"/><path d="m330.022 298.263c-8.284 0-15 6.716-15 15v30c0 8.284 6.716 15 15 15s15-6.716 15-15v-30c0-8.284-6.716-15-15-15z" fill="#292929"/><g><circle cx="256.022" cy="472" fill="#ae774e" r="40"/><g><path d="m256.022 432v80c22.091 0 40-17.909 40-40s-17.908-40-40-40z" fill="#966641"/></g></g></g></svg>