<svg id="Capa_1" enable-background="new 0 0 512 512" height="512" viewBox="0 0 512 512" width="512" xmlns="http://www.w3.org/2000/svg"><path d="m466.916 27.803h-421.832c-24.859 0-45.084 20.225-45.084 45.084v366.226c0 24.859 20.225 45.084 45.084 45.084h421.832c24.859 0 45.084-20.225 45.084-45.084v-366.226c0-24.859-20.225-45.084-45.084-45.084z" fill="#f0f9ff"/><path d="m466.916 27.803h-210.916v456.394h210.916c24.859 0 45.084-20.225 45.084-45.084v-366.226c0-24.859-20.225-45.084-45.084-45.084z" fill="#cee5f5"/><path d="m256 157.284c-54.432 0-98.716 44.284-98.716 98.716s44.284 98.716 98.716 98.716 98.716-44.284 98.716-98.716-44.284-98.716-98.716-98.716z" fill="#f40055"/><path d="m256 157.284v197.432c54.432 0 98.716-44.284 98.716-98.716s-44.284-98.716-98.716-98.716z" fill="#c20044"/></svg>