<svg id="Capa_1" enable-background="new 0 0 512 512" height="512" viewBox="0 0 512 512" width="512" xmlns="http://www.w3.org/2000/svg"><g><path d="m384.534 0h-257.068c-17.13 0-31.066 13.936-31.066 31.066v48.201c0 8.284 6.716 15 15 15h289.202c8.284 0 15-6.716 15-15v-48.201c0-17.13-13.938-31.066-31.068-31.066z" fill="#faf3f4"/><path d="m384.534 0h-128.534v94.268h144.602c8.284 0 15-6.716 15-15v-48.202c0-17.13-13.938-31.066-31.068-31.066z" fill="#daebeb"/><path d="m447.733 143.531c0-8.284-6.716-15-15-15h-353.467c-8.284 0-15 6.716-15 15v313.301c0 30.42 24.748 55.168 55.167 55.168h273.135c30.419 0 55.167-24.748 55.167-55.168z" fill="#faf3f4"/><path d="m447.733 143.531c0-8.284-6.716-15-15-15h-176.733v383.469h136.567c30.419 0 55.167-24.748 55.167-55.168z" fill="#daebeb"/><g><path d="m432.734 224.936h-353.468c-8.284 0-15 6.716-15 15v160.664c0 8.284 6.716 15 15 15h353.469c8.284 0 15-6.716 15-15v-160.664c-.001-8.285-6.716-15-15.001-15z" fill="#4d88da"/><path d="m446.15 136.823-32.132-64.263c-2.541-5.082-7.734-8.292-13.416-8.292h-289.203c-5.682 0-10.875 3.21-13.416 8.292l-32.133 64.263c-2.325 4.65-2.077 10.172.657 14.594 2.733 4.423 7.561 7.114 12.76 7.114h353.467c5.198 0 10.026-2.691 12.76-7.114 2.733-4.422 2.981-9.944.656-14.594z" fill="#cbdfe4"/><path d="m446.15 136.823-32.132-64.263c-2.541-5.082-7.734-8.292-13.416-8.292h-144.602v94.264h176.733c5.198 0 10.026-2.691 12.76-7.114s2.982-9.945.657-14.595z" fill="#99b7c1"/></g><path d="m432.734 224.936h-176.734v190.664h176.734c8.284 0 15-6.716 15-15v-160.664c0-8.285-6.715-15-15-15z" fill="#39659f"/></g></svg>