<svg id="Capa_1" enable-background="new 0 0 512 512" height="512" viewBox="0 0 512 512" width="512" xmlns="http://www.w3.org/2000/svg"><path d="m466.916 27.803h-229.918l-7.569 2h-106.769l-5.275-2h-72.301c-24.859 0-45.084 20.225-45.084 45.084v91.937l4.814 5.196v108.757l-4.814 5.66v154.676c0 24.859 20.225 45.084 45.084 45.084h72.301l3.343-3.281h113.208l3.062 3.281h229.918c24.859 0 45.084-20.225 45.084-45.084v-154.676l-4-5.953v-108.429l4-5.231v-91.937c0-24.859-20.225-45.084-45.084-45.084z" fill="#f40055"/><path d="m512 164.824v-91.937c0-24.859-20.225-45.084-45.084-45.084h-210.916v456.394h210.916c24.859 0 45.084-20.225 45.084-45.084v-154.676l-4-5.953v-108.429z" fill="#c20044"/><path d="m256 164.824h-19.002v-137.021h-119.613v137.021h-117.385v119.613h117.385v199.76h119.613v-199.76h19.002l8.979-7.945v-103.99z" fill="#fff"/><path d="m256 164.824v119.613h256v-43.974l-1-1.862v-26.661l1-1.477v-45.639z" fill="#cee5f5"/><path d="m256 210.463h-64.301v-182.66h-30v182.66h-161.699v30h161.699v243.734h30v-243.734h64.301l1.815-3.031v-23.793z" fill="#406bd4"/><path d="m256 210.463h256v30h-256z" fill="#3257b0"/></svg>