<svg id="Capa_1" enable-background="new 0 0 558.772 558.772" height="512" viewBox="0 0 558.772 558.772" width="512" xmlns="http://www.w3.org/2000/svg"><g><path d="m328.805 41.086c-10.68-11.414-25.344-17.7-41.292-17.7h-231.168c-15.95 0-30.616 6.287-41.297 17.704-10.679 11.415-15.976 26.466-14.914 42.378l26.254 393.826c2.135 32.032 29.987 58.092 62.087 58.092h166.903c32.102 0 59.956-26.06 62.091-58.092l26.258-393.828c1.059-15.914-4.24-30.965-14.922-42.38z" fill="#cbdfe4"/><path d="m328.805 41.086c-10.68-11.414-25.344-17.7-41.292-17.7h-115.584v512h83.448c32.102 0 59.956-26.06 62.091-58.092l26.258-393.828c1.06-15.914-4.239-30.965-14.921-42.38z" fill="#99b7c1"/><path d="m32.086 111.752 23.528 352.938h232.629l23.531-352.938z" fill="#e79d25"/><path d="m311.774 111.752h-139.845v352.938h116.314z" fill="#df6426"/><g><ellipse cx="411.225" cy="387.836" fill="#e79d25" rx="147.547" ry="147.551" transform="matrix(1 -.033 .033 1 -12.498 13.694)"/><path d="m411.224 240.285v295.101c81.358 0 147.548-66.191 147.548-147.551s-66.189-147.55-147.548-147.55z" fill="#df6426"/><g><g><path d="m411.224 270.285c-8.284 0-15-6.716-15-15v-100.041c0-8.284 6.716-15 15-15s15 6.716 15 15v100.041c0 8.285-6.715 15-15 15z" fill="#ba5f19"/><path d="m411.224 140.244v130.041c8.284 0 15-6.716 15-15v-100.041c0-8.284-6.715-15-15-15z" fill="#8d4813"/></g></g><g><g><g><path d="m393.552 464.686c-3.95 0-7.819-1.601-10.61-4.391-2.789-2.79-4.39-6.659-4.39-10.609 0-3.94 1.601-7.81 4.39-10.601 2.791-2.79 6.66-4.399 10.61-4.399s7.81 1.609 10.601 4.399c2.799 2.79 4.399 6.66 4.399 10.601 0 3.95-1.601 7.819-4.399 10.609-2.791 2.79-6.65 4.391-10.601 4.391z" fill="#ba5f19"/></g></g><g><g><path d="m464.243 464.686c-3.94 0-7.81-1.601-10.6-4.391-2.801-2.79-4.4-6.659-4.4-10.609 0-3.94 1.6-7.81 4.4-10.601 2.789-2.79 6.659-4.399 10.6-4.399 3.949 0 7.82 1.609 10.609 4.399 2.791 2.79 4.391 6.66 4.391 10.601 0 3.95-1.6 7.819-4.391 10.609-2.789 2.79-6.66 4.391-10.609 4.391z" fill="#8d4813"/></g></g><g><g><g><path d="m428.903 403.465c-3.951 0-7.82-1.6-10.61-4.39s-4.39-6.66-4.39-10.61c0-3.949 1.6-7.81 4.39-10.609 2.79-2.79 6.659-4.391 10.61-4.391 3.949 0 7.81 1.601 10.6 4.391 2.79 2.8 4.4 6.67 4.4 10.609 0 3.95-1.61 7.811-4.4 10.61-2.79 2.791-6.651 4.39-10.6 4.39z" fill="#8d4813"/></g></g></g></g></g><path d="m526.178 154.485c-.42-7.634-6.516-13.73-14.149-14.152-.269-.015-1.735-.089-4.157-.089-15.877 0-55.676 2.87-82.26 29.454-31.979 31.981-29.486 84.207-29.365 86.414.422 7.634 6.518 13.729 14.15 14.151.27.015 1.736.089 4.159.089 15.876 0 55.673-2.87 82.252-29.454 31.982-31.976 29.493-84.205 29.37-86.413z" fill="#8ee16a"/><path d="m521.809 144.704-121.189 121.19c2.531 2.529 5.962 4.158 9.777 4.369.27.015 1.736.089 4.159.089 15.876 0 55.673-2.87 82.252-29.454 31.981-31.976 29.493-84.205 29.37-86.413-.21-3.817-1.837-7.249-4.369-9.781z" fill="#60a863"/></g></svg>