<?xml version="1.0" encoding="iso-8859-1"?>
<!-- Generator: Adobe Illustrator 19.0.0, SVG Export Plug-In . SVG Version: 6.00 Build 0)  -->
<svg version="1.1" id="Capa_1" xmlns="http://www.w3.org/2000/svg" xmlns:xlink="http://www.w3.org/1999/xlink" x="0px" y="0px"
	 viewBox="0 0 512 512" style="enable-background:new 0 0 512 512;" xml:space="preserve">
<g>
	<path style="fill:#484C57;" d="M62.326,228.585H7.5c-4.143,0-7.5,3.357-7.5,7.5v23.332c0,0.011,0,0.022,0,0.033v16.296
		c0,4.143,3.357,7.5,7.5,7.5s7.5-3.357,7.5-7.5v-8.767l47.28,0.292c0.016,0,0.03,0,0.046,0c1.98,0,3.882-0.783,5.287-2.181
		c1.416-1.407,2.213-3.322,2.213-5.319v-23.687C69.826,231.942,66.469,228.585,62.326,228.585z M54.826,252.225L15,251.979v-8.394
		h39.826V252.225z"/>
	<path style="fill:#484C57;" d="M132.926,228.585H85.661c-6.221,0-11.281,5.144-11.281,11.466v31.74
		c0,6.303,5.045,11.446,11.247,11.467l47.263,0.146c0.013,0,0.024,0,0.037,0c2.972,0,5.775-1.163,7.897-3.278
		c2.181-2.174,3.382-5.081,3.382-8.188v-31.887C144.206,233.729,139.146,228.585,132.926,228.585z M129.206,268.392L89.38,268.27
		v-24.685h39.826V268.392z"/>
	<path style="fill:#484C57;" d="M430.623,228.585c-4.143,0-7.5,3.357-7.5,7.5v12.392l-39.826-0.123v-12.269
		c0-4.143-3.357-7.5-7.5-7.5s-7.5,3.357-7.5,7.5v39.661c0,4.143,3.357,7.5,7.5,7.5s7.5-3.357,7.5-7.5v-12.393l39.826,0.123v12.438
		c0,4.143,3.357,7.5,7.5,7.5s7.5-3.357,7.5-7.5v-39.83C438.123,231.942,434.766,228.585,430.623,228.585z"/>
	<path style="fill:#484C57;" d="M504.477,263.5c0.008,0,0.016,0,0.024,0c4.131,0,7.486-3.343,7.499-7.477
		c0.013-4.143-3.335-7.511-7.477-7.523l-47.35-0.146v-4.83l47.303,0.146c0.008,0,0.016,0,0.024,0c4.131,0,7.486-3.343,7.499-7.477
		c0.013-4.143-3.335-7.511-7.477-7.523l-54.826-0.17c-0.008,0-0.016,0-0.024,0c-4.131,0-7.486,3.343-7.499,7.477
		c0,0.019,0.002,0.037,0.003,0.056c0,0.018-0.003,0.035-0.003,0.053v39.661c0,0.011,0.001,0.021,0.001,0.031
		s-0.001,0.02-0.001,0.029c-0.013,4.143,3.335,7.511,7.477,7.523l54.826,0.17c0.008,0,0.016,0,0.024,0
		c4.131,0,7.486-3.343,7.499-7.477c0.013-4.143-3.335-7.511-7.477-7.523l-47.35-0.146v-5L504.477,263.5z"/>
	<path style="fill:#484C57;" d="M356.911,243.585c4.143,0,7.5-3.357,7.5-7.5s-3.357-7.5-7.5-7.5h-47.265
		c-6.22,0-11.28,5.144-11.28,11.466v31.74c0,6.303,5.045,11.446,11.246,11.467l47.264,0.146c0.009,0,0.016,0,0.024,0
		c4.131,0,7.486-3.343,7.499-7.477c0.013-4.143-3.335-7.511-7.477-7.523l-43.557-0.134v-24.685L356.911,243.585L356.911,243.585z"/>
	<path style="fill:#484C57;" d="M284.17,243.585c4.143,0,7.5-3.357,7.5-7.5s-3.357-7.5-7.5-7.5h-51.045
		c-6.221,0-11.281,5.144-11.281,11.466v11.898c0,6.322,5.061,11.466,11.281,11.466h43.545v4.977l-47.303-0.146
		c-0.009,0-0.016,0-0.023,0c-4.132,0-7.487,3.343-7.5,7.477c-0.013,4.143,3.335,7.511,7.477,7.523l51.033,0.157
		c0.013,0,0.024,0,0.037,0c2.972,0,5.775-1.163,7.897-3.278c2.181-2.174,3.382-5.081,3.382-8.188v-12.056
		c0-6.323-5.061-11.467-11.281-11.467h-43.545v-4.83L284.17,243.585L284.17,243.585z"/>
	<path style="fill:#484C57;" d="M213.666,266.161c0.494-0.302,0.959-0.655,1.376-1.07c1.416-1.407,2.213-3.322,2.213-5.319v-23.687
		c0-4.143-3.357-7.5-7.5-7.5h-54.826c-4.143,0-7.5,3.357-7.5,7.5v23.332c0,0.011,0,0.022,0,0.033v16.296c0,4.143,3.357,7.5,7.5,7.5
		s7.5-3.357,7.5-7.5v-8.767l35.311,0.218l5.147,11.731c1.234,2.813,3.985,4.488,6.872,4.488c1.006,0,2.029-0.204,3.01-0.634
		c3.793-1.664,5.519-6.088,3.854-9.882L213.666,266.161z M162.429,243.585h39.826v8.64l-39.826-0.246V243.585z"/>
</g>
<g>
</g>
<g>
</g>
<g>
</g>
<g>
</g>
<g>
</g>
<g>
</g>
<g>
</g>
<g>
</g>
<g>
</g>
<g>
</g>
<g>
</g>
<g>
</g>
<g>
</g>
<g>
</g>
<g>
</g>
</svg>
