<svg id="Capa_1" enable-background="new 0 0 512 512" height="512" viewBox="0 0 512 512" width="512" xmlns="http://www.w3.org/2000/svg"><path d="m256 27.803h-210.916c-24.859 0-45.084 20.225-45.084 45.084v70.104l4 4.68v216.442l-4 4.897v70.104c0 24.859 20.225 45.084 45.084 45.084h210.916l8.532-10.8v-433.867z" fill="#f40055"/><path d="m466.916 27.803h-210.916v456.394h210.916c24.859 0 45.084-20.225 45.084-45.084v-70.104l-8.706-8.41v-209.896l8.706-7.712v-70.104c0-24.859-20.225-45.084-45.084-45.084z" fill="#c20044"/><path d="m256 142.991h-256v226.018h256l8.322-11.011v-205.813z" fill="#ffcb24"/><path d="m256 142.991h256v226.019h-256z" fill="#f49600"/></svg>