<?xml version="1.0" encoding="iso-8859-1"?>
<!-- Generator: Adobe Illustrator 19.0.0, SVG Export Plug-In . SVG Version: 6.00 Build 0)  -->
<svg version="1.1" id="Capa_1" xmlns="http://www.w3.org/2000/svg" xmlns:xlink="http://www.w3.org/1999/xlink" x="0px" y="0px"
	 viewBox="0 0 512 512" style="enable-background:new 0 0 512 512;" xml:space="preserve">
<g>
	<path style="fill:#E3E3E3;" d="M256,104.5C114.606,104.5,0,172.357,0,256c0,83.676,114.606,151.5,256,151.5
		c141.395,0,256-67.823,256-151.5C512,172.357,397.394,104.5,256,104.5z"/>
	<path style="fill:#CCCCCC;" d="M256,104.5c-4.145,0-8.265,0.064-12.362,0.179c135.651,3.819,243.638,70.13,243.638,151.321
		c0,81.223-107.987,147.504-243.638,151.321c4.097,0.115,8.217,0.179,12.362,0.179c141.395,0,256-67.823,256-151.5
		C512,172.357,397.394,104.5,256,104.5z"/>
	<path style="fill:#00539E;" d="M255.999,382.766c-64.021,0-123.839-14.534-168.434-40.926c-40.524-23.982-62.84-54.467-62.84-85.84
		c0-31.361,22.318-61.843,62.842-85.829c44.601-26.398,104.418-40.937,168.433-40.937c64.016,0,123.833,14.538,168.435,40.937
		c40.524,23.986,62.842,54.467,62.842,85.829c0,31.372-22.317,61.858-62.841,85.84C379.839,368.232,320.021,382.766,255.999,382.766
		z"/>
	<path style="fill:#004380;" d="M424.434,170.172c-44.602-26.398-104.419-40.937-168.435-40.937c-5.182,0-10.332,0.105-15.453,0.294
		c58.143,2.147,111.99,16.381,152.982,40.642c40.524,23.986,62.842,54.467,62.842,85.829c0,31.372-22.317,61.858-62.841,85.84
		c-40.986,24.255-94.834,38.485-152.983,40.631c5.121,0.189,10.271,0.294,15.453,0.294c64.022,0,123.84-14.534,168.436-40.926
		c40.524-23.982,62.841-54.467,62.841-85.84C487.276,224.639,464.958,194.158,424.434,170.172z"/>
	<g>
		<path style="fill:#E3E3E3;" d="M268.359,226.359c0,0.544-0.3,1.198-0.908,1.198l-74.446,11.332
			c-3.931,0.322-7.16,3.482-8.368,7.73l-13.113,47.925c-0.094,0.295-0.214,0.534-0.36,0.719c-0.317,0.433-0.737,0.59-1.156,0.59
			c-0.6,0-1.208-0.654-1.507-1.308l-13.018-47.925c-1.208-4.247-4.839-7.407-8.676-8.061l-74.24-11
			c-0.505,0-0.805-0.654-0.805-1.198c0-0.654,0.3-0.977,0.805-1.308l37.326-5.445l36.914-5.555c3.837-0.654,7.169-3.805,8.376-7.73
			l13.318-48.579c0.3-0.544,0.908-1.198,1.507-1.198c0.223,0,0.445,0.092,0.642,0.24c0,0,0.009,0.009,0.017,0.009
			c0.317,0.23,0.548,0.608,0.548,0.949l13.421,48.579c1.208,3.925,4.437,7.075,8.368,7.73l74.446,11
			C268.06,225.383,268.359,225.705,268.359,226.359z"/>
		<path style="fill:#E3E3E3;" d="M459.366,272.045v0.021c0,0.526-0.371,0.969-0.886,1.062l-40.888,7.018
			c-0.051,0.01-0.103,0.021-0.155,0.031c-2.524,0.752-5.037,2.803-5.748,5.339l-6.222,23.683c-0.124,0.474-0.546,0.804-1.03,0.804
			h-0.917c-0.484,0-0.906-0.319-1.03-0.783l-6.552-23.611c-0.01-0.062-0.031-0.124-0.062-0.175
			c-1.092-2.515-3.152-4.555-6.027-5.277l-38.23-6.957c-0.113-0.031-0.216-0.031-0.33-0.01h-0.041l-37.56,6.338
			c-2.792,0.371-4.976,2.443-5.697,4.999l-5.872,22.972c-0.124,0.474-0.567,0.814-1.061,0.804h-0.206l-0.288-0.01
			c-0.484-0.01-0.907-0.34-1.03-0.804l-5.862-22.962c-0.732-2.556-2.915-4.627-5.707-4.999l-19.769-3.648l-18.76-3.03
			c-0.515-0.082-0.896-0.536-0.896-1.061c0-0.526,0.381-0.969,0.896-1.051l38.467-6.307c0.041-0.01,0.083-0.021,0.124-0.031
			c2.761-0.732,4.924-2.556,5.645-5.462l5.862-22.581c0.124-0.474,0.546-0.804,1.03-0.804h0.536c0.484,0,0.906,0.33,1.03,0.804
			l5.862,22.581c0.711,2.906,2.874,4.731,5.635,5.462c0.041,0.01,0.082,0.021,0.134,0.031l37.498,6.142h0.031
			c0.103,0.021,0.216,0.021,0.319,0l38.24-6.256c2.864-0.721,4.924-2.875,6.027-5.266c0.031-0.062,0.052-0.124,0.072-0.196
			l6.542-23.962c0.124-0.474,0.556-0.794,1.03-0.794h0.907c0.494,0,0.917,0.33,1.04,0.804l6.222,24.055
			c0.711,2.401,3.224,4.576,5.738,5.339c0.052,0.01,0.113,0.021,0.165,0.031l40.878,6.668
			C458.985,271.076,459.366,271.519,459.366,272.045z"/>
		<path style="fill:#E3E3E3;" d="M426.792,207.776l-39.435,6.462c-2.421,0.732-4.605,2.556-5.336,5.359l-6.068,23.395
			c-0.072,0.505-0.608,0.783-1.185,0.814c-0.659,0.041-1.339-0.227-1.36-0.814l-6.068-23.395c-0.732-2.803-2.915-4.627-5.707-5.359
			l-39.425-6.462c-0.371-0.361-0.371-1.824,0-1.824l19.656-3.164l19.769-3.659c2.792-0.361,4.976-2.556,5.707-4.999l6.068-23.756
			c0-0.216,0.69-0.464,1.36-0.464c0.484,0,0.958,0.124,1.185,0.464l6.068,23.756c0.731,2.443,2.915,4.638,5.336,4.999l39.435,6.823
			C427.153,205.952,427.153,207.415,426.792,207.776z"/>
	</g>
	<g>
		<path style="fill:#CCCCCC;" d="M268.359,226.359c0,0.544-0.3,1.198-0.908,1.198l-74.446,11.332
			c-3.931,0.322-7.16,3.482-8.368,7.73l-13.113,47.925c-0.094,0.295-0.214,0.534-0.36,0.719l-1.156,0.59V156.544
			c0,0,0.223,0.083,0.642,0.24c0,0,0.009,0.009,0.017,0.009c0.317,0.23,0.548,0.608,0.548,0.949l13.421,48.579
			c1.208,3.925,4.437,7.075,8.368,7.73l74.446,11C268.06,225.383,268.359,225.705,268.359,226.359z"/>
		<path style="fill:#CCCCCC;" d="M426.792,207.776l-39.435,6.462c-2.421,0.732-4.605,2.556-5.336,5.359l-6.068,23.395
			c-0.072,0.505-0.608,0.783-1.185,0.814v-73.895c0.484,0,0.958,0.124,1.185,0.464l6.068,23.756
			c0.731,2.443,2.915,4.638,5.336,4.999l39.435,6.823C427.153,205.952,427.153,207.415,426.792,207.776z"/>
		<path style="fill:#CCCCCC;" d="M351.29,270.571v2.618h-0.041l-37.56,6.338c-2.792,0.371-4.976,2.443-5.697,4.999l-5.872,22.972
			c-0.124,0.474-0.567,0.814-1.061,0.804h-0.206v-72.751h0.247c0.484,0,0.906,0.33,1.03,0.804l5.862,22.581
			c0.711,2.906,2.874,4.731,5.635,5.462c0.041,0.01,0.082,0.021,0.134,0.031l37.498,6.142L351.29,270.571L351.29,270.571z"/>
		<path style="fill:#CCCCCC;" d="M459.366,272.045v0.021c0,0.526-0.371,0.969-0.886,1.062l-40.888,7.018
			c-0.051,0.01-0.103,0.021-0.155,0.031c-2.524,0.752-5.037,2.803-5.748,5.339l-6.222,23.683c-0.124,0.474-0.546,0.804-1.03,0.804
			h-0.433v-75.905h0.423c0.494,0,0.917,0.33,1.04,0.804l6.222,24.055c0.711,2.401,3.224,4.576,5.738,5.339
			c0.052,0.01,0.113,0.021,0.165,0.031l40.878,6.668C458.985,271.076,459.366,271.519,459.366,272.045z"/>
	</g>
	<path style="fill:#E3E3E3;" d="M400.915,320.827v0.021c0,0.526-0.371,0.969-0.886,1.062l-40.888,7.018
		c-0.051,0.01-0.103,0.021-0.155,0.031c-2.524,0.752-5.037,2.803-5.748,5.339l-6.222,23.683c-0.124,0.474-0.546,0.804-1.03,0.804
		h-0.917c-0.484,0-0.906-0.319-1.03-0.783l-6.552-23.611c-0.01-0.062-0.031-0.124-0.062-0.175c-1.092-2.515-3.152-4.555-6.027-5.277
		l-38.23-6.957c-0.113-0.031-0.216-0.031-0.33-0.01h-0.041l-37.56,6.338c-2.792,0.371-4.976,2.443-5.697,4.999l-5.872,22.972
		c-0.124,0.474-0.567,0.814-1.061,0.804h-0.206l-0.288-0.01c-0.484-0.01-0.907-0.34-1.03-0.804l-5.862-22.962
		c-0.732-2.556-2.915-4.627-5.707-4.999l-19.769-3.648l-18.76-3.03c-0.515-0.082-0.896-0.536-0.896-1.061
		c0-0.526,0.381-0.969,0.896-1.051l38.467-6.307c0.041-0.01,0.082-0.021,0.124-0.031c2.761-0.732,4.924-2.556,5.645-5.462
		l5.862-22.581c0.124-0.474,0.546-0.804,1.03-0.804h0.536c0.484,0,0.906,0.33,1.03,0.804l5.862,22.581
		c0.711,2.906,2.874,4.731,5.635,5.462c0.041,0.01,0.083,0.021,0.134,0.031l37.498,6.142h0.031c0.103,0.021,0.216,0.021,0.319,0
		l38.24-6.256c2.864-0.721,4.924-2.875,6.027-5.266c0.031-0.062,0.052-0.124,0.072-0.196l6.542-23.962
		c0.124-0.474,0.556-0.794,1.03-0.794h0.907c0.494,0,0.917,0.33,1.04,0.804l6.222,24.055c0.711,2.401,3.224,4.576,5.738,5.339
		c0.052,0.01,0.113,0.021,0.165,0.031l40.878,6.668C400.534,319.858,400.915,320.301,400.915,320.827z"/>
	<g>
		<path style="fill:#CCCCCC;" d="M292.839,319.353v2.618h-0.041l-37.56,6.338c-2.792,0.371-4.976,2.443-5.697,4.999l-5.872,22.972
			c-0.124,0.474-0.567,0.814-1.061,0.804h-0.206v-72.751h0.247c0.484,0,0.906,0.33,1.03,0.804l5.862,22.581
			c0.711,2.906,2.874,4.731,5.635,5.462c0.041,0.01,0.083,0.021,0.134,0.031l37.498,6.142H292.839z"/>
		<path style="fill:#CCCCCC;" d="M400.915,320.827v0.021c0,0.526-0.371,0.969-0.886,1.062l-40.888,7.018
			c-0.051,0.01-0.103,0.021-0.155,0.031c-2.524,0.752-5.037,2.803-5.748,5.339l-6.222,23.683c-0.124,0.474-0.546,0.804-1.03,0.804
			h-0.433V282.88h0.423c0.494,0,0.917,0.33,1.04,0.804l6.222,24.055c0.711,2.401,3.224,4.576,5.738,5.339
			c0.052,0.01,0.113,0.021,0.165,0.031l40.878,6.668C400.534,319.858,400.915,320.301,400.915,320.827z"/>
	</g>
</g>
<g>
</g>
<g>
</g>
<g>
</g>
<g>
</g>
<g>
</g>
<g>
</g>
<g>
</g>
<g>
</g>
<g>
</g>
<g>
</g>
<g>
</g>
<g>
</g>
<g>
</g>
<g>
</g>
<g>
</g>
</svg>
