<svg id="Capa_1" enable-background="new 0 0 512.002 512.002" height="512" viewBox="0 0 512.002 512.002" width="512" xmlns="http://www.w3.org/2000/svg"><g><g><g><g><g><g><path d="m238.136 101.411c-2.627 0-5.287-.689-7.703-2.14-7.104-4.262-9.408-13.477-5.145-20.58 3.559-5.931 1.839-12.526-1.505-23.675-3.817-12.724-9.045-30.149 1.505-47.731 4.262-7.103 13.476-9.408 20.579-5.145 7.104 4.262 9.408 13.476 5.145 20.579-3.559 5.932-1.839 12.528 1.505 23.677 3.817 12.724 9.045 30.148-1.505 47.731-2.813 4.688-7.78 7.284-12.876 7.284z" fill="#cbdfe4"/></g></g></g><g><g><g><path d="m309.544 101.411c-2.627 0-5.287-.689-7.703-2.139-7.103-4.263-9.408-13.477-5.146-20.58 3.559-5.931 1.84-12.527-1.505-23.676-3.816-12.724-9.044-30.149 1.506-47.731 4.262-7.103 13.477-9.408 20.579-5.145 7.104 4.262 9.408 13.476 5.145 20.579-3.558 5.932-1.84 12.529 1.505 23.679 3.816 12.723 9.043 30.146-1.504 47.728-2.813 4.688-7.782 7.285-12.877 7.285z" fill="#99b7c1"/></g></g></g><g><g><g><path d="m166.728 101.411c-2.627 0-5.287-.689-7.703-2.14-7.104-4.262-9.408-13.477-5.145-20.58 3.559-5.931 1.84-12.527-1.505-23.677-3.816-12.723-9.043-30.147 1.504-47.729 4.262-7.103 13.477-9.406 20.58-5.146 7.104 4.262 9.408 13.476 5.146 20.58-3.559 5.931-1.84 12.527 1.505 23.677 3.816 12.724 9.044 30.148-1.506 47.731-2.813 4.688-7.782 7.284-12.876 7.284z" fill="#cbdfe4"/></g></g></g><path d="m398.816 142.817h-321.333c-8.284 0-15 6.716-15 15v107.112c0 96.862 78.804 175.666 175.666 175.666 65.473 0 122.686-36.01 152.898-89.259h7.769c57.489 0 104.26-46.77 104.26-104.26s-46.771-104.259-104.26-104.259zm5.795 178.272c5.967-17.643 9.205-36.529 9.205-56.16v-90.589c33.781 6.957 59.26 36.927 59.26 72.736-.001 38.996-30.219 71.043-68.465 74.013z" fill="#8ee16a"/><path d="m398.816 142.817h-160.667v297.778c65.473 0 122.686-36.01 152.898-89.259h7.769c57.489 0 104.26-46.77 104.26-104.26s-46.771-104.259-104.26-104.259zm5.795 178.272c5.967-17.643 9.205-36.529 9.205-56.16v-90.589c33.781 6.957 59.26 36.927 59.26 72.736-.001 38.996-30.219 71.043-68.465 74.013z" fill="#60a863"/></g><g><g><path d="m238.149 244.225c-8.284 0-15-6.716-15-15v-71.408c0-8.284 6.716-15 15-15s15 6.716 15 15v71.408c0 8.284-6.715 15-15 15z" fill="#cbdfe4"/></g></g><path d="m238.149 142.817v101.408c8.284 0 15-6.716 15-15v-71.408c0-8.285-6.715-15-15-15z" fill="#99b7c1"/></g><path d="m273.853 214.225h-71.406c-8.284 0-15 6.716-15 15v71.406c0 8.284 6.716 15 15 15h71.406c8.284 0 15-6.716 15-15v-71.406c0-8.284-6.716-15-15-15z" fill="#faf3f4"/><path d="m273.853 214.225h-35.703v101.406h35.703c8.284 0 15-6.716 15-15v-71.406c0-8.284-6.716-15-15-15z" fill="#daebeb"/><path d="m452.372 410.595h-71.408-285.629-71.408c-8.284 0-15 6.716-15 15s6.716 15 15 15h56.408v20.704c0 27.958 26.75 50.703 59.629 50.703h196.371c32.879 0 59.629-22.745 59.629-50.703v-20.704h56.408c8.284 0 15-6.716 15-15s-6.716-15-15-15z" fill="#faf3f4"/><path d="m251.012 94.127c10.55-17.583 5.322-35.008 1.505-47.731-3.344-11.148-5.063-17.745-1.505-23.677 4.263-7.103 1.959-16.317-5.145-20.579-2.42-1.453-5.085-2.125-7.717-2.123v101.395c5.09-.007 10.052-2.602 12.862-7.285z" fill="#99b7c1"/><path d="m452.372 410.595h-71.408-142.815v101.407h98.186c32.879 0 59.629-22.745 59.629-50.703v-20.704h56.408c8.284 0 15-6.716 15-15s-6.716-15-15-15z" fill="#daebeb"/></g></svg>