<svg id="Capa_1" enable-background="new 0 0 512 512" height="512" viewBox="0 0 512 512" width="512" xmlns="http://www.w3.org/2000/svg"><g><g><g><path d="m129.428 149.531c-2.281 0-4.575-.519-6.7-1.579l-28.554-14.238c-18.937-9.442-32.96-26.567-38.474-46.984l-13.685-50.676c-2.707-10.025.075-20.383 7.442-27.706 7.366-7.322 17.747-10.05 27.764-7.295l45.434 12.494c21.763 5.984 39.389 21.286 48.359 41.981l15.726 36.281c2.632 6.071.971 13.147-4.086 17.418l-43.534 36.761c-2.766 2.336-6.214 3.543-9.692 3.543z" fill="#5a5a5a"/></g><g><path d="m382.572 149.531c-3.479 0-6.927-1.207-9.693-3.543l-43.534-36.761c-5.057-4.271-6.716-11.347-4.085-17.418l15.727-36.281c8.97-20.695 26.597-35.997 48.359-41.981l45.434-12.494c10.02-2.755 20.398-.027 27.766 7.296 7.366 7.324 10.148 17.681 7.44 27.706l-13.685 50.675c-5.513 20.417-19.536 37.543-38.475 46.985l-28.555 14.237c-2.124 1.061-4.419 1.579-6.699 1.579z" fill="#292929"/></g></g><path d="m285.766 512h-59.531c-21.249 0-40.617-10.784-51.809-28.847l-6.938-11.198c-7.817-12.616-10.76-27.623-8.287-42.257l4.021-23.803c.824-4.874.216-9.846-1.757-14.377l-31.502-72.337c-6.963-15.989-11.898-32.827-14.67-50.046l-12.254-76.148c-4.515-28.061 2.705-57.171 19.81-79.867l38.146-50.618c14.1-18.71 36.505-29.881 59.934-29.881h70.145c23.429 0 45.834 11.17 59.935 29.881l38.146 50.619c17.104 22.697 24.323 51.807 19.809 79.866l-12.254 76.147c-2.771 17.221-7.707 34.059-14.671 50.047l-31.5 72.337c-1.975 4.532-2.582 9.503-1.759 14.376l4.021 23.805c2.474 14.632-.47 29.639-8.286 42.255l-6.94 11.2c-11.193 18.063-30.561 28.846-51.809 28.846z" fill="#ececf1"/><g><path d="m389.153 113.122-38.146-50.62c-14.101-18.71-36.506-29.881-59.935-29.881h-35.072v479.379h29.766c21.248 0 40.616-10.783 51.808-28.846l6.94-11.2c7.816-12.616 10.76-27.623 8.286-42.255l-4.021-23.805c-.823-4.873-.216-9.844 1.759-14.376l31.5-72.337c6.964-15.988 11.899-32.826 14.671-50.047l12.254-76.147c4.514-28.058-2.706-57.168-19.81-79.865z" fill="#d3d3d8"/></g><g><path d="m202.155 401.813-41.982 22.123-.973 5.763c-2.473 14.634.47 29.641 8.287 42.257l6.938 11.198c11.193 18.062 30.561 28.846 51.81 28.846h59.531c21.248 0 40.616-10.783 51.808-28.846l6.94-11.2c7.816-12.616 10.76-27.623 8.286-42.255l-.935-5.537-42.765-22.441c-33.49-17.574-73.485-17.54-106.945.092z" fill="#5a5a5a"/></g><g><path d="m352.8 429.699-.935-5.537-42.765-22.441c-16.628-8.726-34.86-13.106-53.1-13.151v123.43h29.766c21.248 0 40.616-10.783 51.808-28.846l6.94-11.2c7.816-12.616 10.759-27.623 8.286-42.255z" fill="#292929"/></g><g><path d="m185 298c-8.284 0-15-6.716-15-15v-30c0-8.284 6.716-15 15-15s15 6.716 15 15v30c0 8.284-6.716 15-15 15z" fill="#444"/></g><g><path d="m327 298c-8.284 0-15-6.716-15-15v-30c0-8.284 6.716-15 15-15s15 6.716 15 15v30c0 8.284-6.716 15-15 15z" fill="#292929"/></g><g><g><path d="m226.5 490c-8.284 0-15-6.716-15-15v-26c0-8.284 6.716-15 15-15s15 6.716 15 15v26c0 8.284-6.716 15-15 15z" fill="#acacac"/></g><g><path d="m285.5 490c-8.284 0-15-6.716-15-15v-26c0-8.284 6.716-15 15-15s15 6.716 15 15v26c0 8.284-6.716 15-15 15z" fill="#6e6e6e"/></g></g><g fill="#5a5a5a"><path d="m389.153 113.122-5.058-6.712-37.94 39.287c-5.431 5.624-19.793 15.312-27.949 20.346-26.403 13.466-47.259 35.119-58.78 61.042l-.054.116c-.86 1.89-2.402 2.29-3.554 2.29-.008 0-.016 0-.024 0-1.155-.005-2.709-.414-3.557-2.325-11.514-25.959-32.387-47.645-58.818-61.125-8.149-5.026-22.5-14.703-27.948-20.345l-37.73-39.07-4.894 6.494c-4.606 6.112-8.488 12.691-11.624 19.588l32.668 33.828c10 10.355 31.899 23.889 34.363 25.398.353.216.714.417 1.084.604 20.531 10.346 36.681 26.963 45.475 46.792 5.487 12.371 17.302 20.096 30.834 20.162.059.001.116.001.174.001 13.46 0 25.271-7.598 30.84-19.83l.077-.168c.025-.054.05-.109.074-.164 8.795-19.829 24.945-36.446 45.476-46.792.369-.187.731-.388 1.084-.604 2.464-1.509 24.362-15.042 34.362-25.397l32.921-34.09c-3.114-6.801-6.955-13.292-11.502-19.326z"/><path d="m224.556 153.426c7.56 9.507 18.864 14.977 31.013 15.005h.095c12.113 0 23.403-5.413 30.988-14.86 33.809-42.109 37.454-52.11 38.826-55.875l16.466-45.172c-7.585-6.97-16.536-12.304-26.212-15.688l-18.44 50.585c-.555 1.522-4.804 10.961-34.033 47.368-2.541 3.165-5.842 3.642-7.598 3.642-.008 0-.015 0-.022 0-1.75-.004-5.066-.487-7.602-3.677-28.908-36.354-33.147-45.807-33.703-47.333l-18.397-50.47c-9.667 3.431-18.604 8.81-26.162 15.826l16.373 44.918c1.368 3.753 5.001 13.72 38.408 55.731z"/><path d="m210.35 365.038c6.739 0 12.865-4.575 14.552-11.411 1.984-8.043-2.928-16.172-10.971-18.156l-86.025-21.222c.669 1.651 1.345 3.299 2.056 4.933l12.917 29.661 63.866 15.755c1.207.298 2.415.44 3.605.44z"/></g><path d="m289.121 353.627c1.687 6.837 7.812 11.411 14.552 11.411 1.189 0 2.398-.143 3.604-.44l61.6-15.197 13.159-30.219c.631-1.45 1.227-2.914 1.825-4.377l-83.77 20.666c-8.042 1.984-12.954 10.113-10.97 18.156z" fill="#292929"/><path d="m256 80.07c8.284 0 15-6.716 15-15v-32.448h-30v32.448c0 8.284 6.716 15 15 15z" fill="#5a5a5a"/><g fill="#292929"><path d="m389.153 113.122-5.058-6.712-37.94 39.287c-5.431 5.624-19.793 15.312-27.949 20.346-26.403 13.466-47.259 35.119-58.78 61.042l-.054.116c-.817 1.794-2.244 2.24-3.372 2.282v30.003c13.386-.067 25.118-7.646 30.662-19.824l.077-.168c.025-.054.05-.109.074-.164 8.795-19.829 24.945-36.446 45.476-46.792.369-.187.731-.388 1.084-.604 2.464-1.509 24.362-15.042 34.362-25.397l32.921-34.09c-3.115-6.8-6.956-13.291-11.503-19.325z"/><path d="m286.652 153.571c33.809-42.109 37.454-52.11 38.826-55.875l16.466-45.172c-7.585-6.97-16.536-12.304-26.212-15.688l-18.44 50.585c-.555 1.522-4.804 10.961-34.033 47.368-2.386 2.972-5.442 3.574-7.26 3.636v29.996c11.986-.099 23.139-5.49 30.653-14.85z"/><path d="m271 65.07v-32.448h-15v47.448c8.284 0 15-6.716 15-15z"/></g></g></svg>