<?xml version="1.0" encoding="iso-8859-1"?>
<!-- Generator: Adobe Illustrator 19.0.0, SVG Export Plug-In . SVG Version: 6.00 Build 0)  -->
<svg version="1.1" id="Capa_1" xmlns="http://www.w3.org/2000/svg" xmlns:xlink="http://www.w3.org/1999/xlink" x="0px" y="0px"
	 viewBox="0 0 429.989 429.989" height="430" width="430" style="enable-background:new 0 0 429.989 429.989;" xml:space="preserve">
<path id="XMLID_668_" d="M420.989,0.001H215.122C215.079,0,215.037,0,214.994,0H77.665c-0.043,0-0.085,0-0.128,0.001H9
	c-4.971,0-9,4.029-9,9v411.987c0,4.971,4.029,9,9,9h137.329h0.002h274.659c4.971,0,9-4.029,9-9V9.001
	C429.989,4.031,425.96,0.001,420.989,0.001z M343.323,155.331v59.664v0.001v59.664h-50.664v-59.665c0-4.971-4.029-9-9-9h-68.665
	c-0.045,0-0.09,0-0.135,0.001h-59.53v-50.665H343.323z M86.665,18h119.329v119.33h-59.665H86.665V18z M18,18.001h50.665V146.33
	c0,0.063,0,0.128,0.002,0.191v59.475H18V18.001z M137.331,411.989H18V292.66h50.667v59.665c0,4.971,4.029,9,9,9h59.664V411.989z
	 M146.329,274.66c-4.971,0-9,4.029-9,9v59.665H86.667V283.66c0-4.971-4.029-9-9-9H18v-50.664h59.667c4.971,0,9-4.029,9-9v-59.665
	h50.662v59.665c0,4.971,4.029,9,9,9h59.665v50.664H146.329z M205.994,352.325v59.664h-50.663v-59.664c0-0.063,0-0.124-0.002-0.187
	V292.66h59.665c4.971,0,9-4.029,9-9v-59.665h50.665v119.33h-59.665C210.023,343.325,205.994,347.354,205.994,352.325z
	 M411.989,411.989H223.994v-50.664h187.996V411.989z M411.989,343.325H292.659V292.66h59.664c4.971,0,9-4.029,9-9v-59.665h50.667
	V343.325z M411.989,205.995h-50.667v-59.664c0-4.971-4.029-9-9-9h-59.664V86.665h119.331V205.995z M411.989,68.665l-128.331,0.002
	c-4.971,0-9,4.029-9,9v59.664h-50.665V18.001h187.996V68.665z"/>
<g>
</g>
<g>
</g>
<g>
</g>
<g>
</g>
<g>
</g>
<g>
</g>
<g>
</g>
<g>
</g>
<g>
</g>
<g>
</g>
<g>
</g>
<g>
</g>
<g>
</g>
<g>
</g>
<g>
</g>
</svg>
