<?xml version="1.0"?>
<svg xmlns="http://www.w3.org/2000/svg" viewBox="0 0 64 64" width="512" height="512"><g id="house-stay_at_home-coronavirus-covid-covid19-2" data-name="house-stay at home-coronavirus-covid-covid19"><path d="M61.506,19.137,57,16.5V7a1,1,0,0,0-1-1H48a1,1,0,0,0-1,1v3.634l-14.494-8.5a1.006,1.006,0,0,0-1.012,0l-29,17A1,1,0,0,0,2,20v6a1,1,0,0,0,1.506.863L32,10.159l28.48,16.7A.99.99,0,0,0,61,27a1,1,0,0,0,1-1V20A1,1,0,0,0,61.506,19.137ZM49,8h6v7.323l-6-3.517ZM60,24.254,32.506,8.137a1,1,0,0,0-1.012,0L4,24.254V20.573L32,4.159,60,20.573Z"/><path d="M39,29V21a1,1,0,0,0-1-1H26a1,1,0,0,0-1,1v8a1,1,0,0,0,1,1H38A1,1,0,0,0,39,29Zm-2-5H33V22h4Zm-6-2v2H27V22Zm-4,4h4v2H27Zm10,2H33V26h4Z"/><rect x="16" y="46" width="2" height="4"/><path d="M59,36.71V28a1,1,0,0,0-.5-.87l-26-15a1.044,1.044,0,0,0-1,0l-26,15A1,1,0,0,0,5,28V61a1,1,0,0,0,1,1H58a1,1,0,0,0,1-1V55.29a15.884,15.884,0,0,0,0-18.58ZM26,60H14V40H26Zm2,0V39a1,1,0,0,0-1-1H13a1,1,0,0,0-1,1V60H7V28.58L32,14.15,57,28.58v5.83A15.987,15.987,0,1,0,38.27,60Zm29,0H53.73A16.15,16.15,0,0,0,57,57.59ZM46,60A14,14,0,1,1,60,46,14.015,14.015,0,0,1,46,60Z"/><path d="M52.293,37.293,42.926,46.66l-4.3-3.441A1,1,0,0,0,37.2,43.4l-3,4a1,1,0,0,0,.141,1.352l8,7a1,1,0,0,0,1.366-.045l13.5-13.5a1,1,0,0,0,0-1.414l-3.5-3.5A1,1,0,0,0,52.293,37.293ZM42.955,53.631l-6.6-5.773,1.825-2.433,4.194,3.356a1,1,0,0,0,1.332-.074L53,39.414,55.086,41.5Z"/></g></svg>
