<?xml version="1.0" encoding="iso-8859-1"?>
<!-- Generator: Adobe Illustrator 19.0.0, SVG Export Plug-In . SVG Version: 6.00 Build 0)  -->
<svg version="1.1" id="Layer_1" xmlns="http://www.w3.org/2000/svg" xmlns:xlink="http://www.w3.org/1999/xlink" x="0px" y="0px"
	 viewBox="0 0 512 512" height="512" width="512" style="enable-background:new 0 0 512 512;" xml:space="preserve">
<g>
	<g>
		<g>
			<path d="M503.467,460.799v-24.258c0-19.355-15.588-35.132-34.867-35.458l-15.518-170.682h16.251
				c16.469,0,29.867-13.397,29.867-29.867s-13.397-29.867-29.867-29.867h-12.664l27.275-63.676l-46.097,11.477l-29.952-29.807
				l-23.893,39.817l-23.893-39.817l-29.961,29.807l-46.089-11.477l27.275,63.676h-12.668c-16.469,0-29.867,13.397-29.867,29.867
				s13.397,29.867,29.867,29.867h16.256l-15.511,170.682c-19.284,0.32-34.878,16.099-34.878,35.458v24.258h-17.067v-24.258
				c0-19.366-15.605-35.149-34.899-35.458l-15.439-162.148h16.205c16.469,0,29.867-13.397,29.867-29.867
				s-13.397-29.867-29.867-29.867h-23.497l11.327-50.953c1.408-6.323-0.119-12.851-4.173-17.894
				c-4.053-5.06-10.095-7.953-16.572-7.953h-18.285V85.335h5.359c11.162,0,20.241-9.079,20.241-20.25V45.851
				c0-11.17-9.079-20.25-20.241-20.25h-5.359v-5.35c0-11.17-9.079-20.25-20.241-20.25h-27.785c-11.162,0-20.241,9.079-20.241,20.25
				v5.35h-5.359c-11.162,0-20.241,9.079-20.241,20.25v19.234c0,11.17,9.079,20.25,20.241,20.25h5.359v17.067h-18.28
				c-6.477,0-12.518,2.893-16.58,7.953c-4.045,5.043-5.572,11.571-4.173,17.894l11.327,50.953H42.667
				c-16.469,0-29.867,13.397-29.867,29.867s13.397,29.867,29.867,29.867h16.215L43.442,401.082
				c-19.298,0.304-34.909,16.09-34.909,35.459v24.258c-4.719,0-8.533,3.823-8.533,8.533v34.133c0,4.719,3.814,8.533,8.533,8.533
				h494.933c4.719,0,8.533-3.814,8.533-8.533v-34.133C512,464.622,508.186,460.799,503.467,460.799z M318.869,375.465h130.273
				l2.329,25.603H316.541L318.869,375.465z M322.747,332.799h122.514l2.328,25.6H320.42L322.747,332.799z M313.277,131.858
				l22.093,5.495l21.325-21.214l27.307,45.517l27.307-45.517l21.325,21.214l22.093-5.495l-16.614,38.81h-108.22L313.277,131.858z
				 M298.667,213.335c-7.057,0-12.8-5.743-12.8-12.8s5.743-12.8,12.8-12.8h19.978h130.714h19.975c7.057,0,12.8,5.743,12.8,12.8
				s-5.743,12.8-12.8,12.8H451.53H316.473H298.667z M435.948,230.401l7.761,85.331H324.298l7.757-85.331H435.948z M281.6,436.541
				c0-10.155,8.26-18.406,18.406-18.406h167.987c10.146,0,18.406,8.252,18.406,18.406v24.258H281.6V436.541z M63.022,375.465
				h129.966l2.439,25.603H60.583L63.022,375.465z M67.087,332.799h121.837l2.439,25.6H64.648L67.087,332.799z M88.508,68.268
				c-1.749,0-3.174-1.425-3.174-3.183V45.851c0-1.758,1.425-3.183,3.174-3.183h22.426V20.251c0-1.758,1.425-3.183,3.174-3.183
				h27.785c1.749,0,3.174,1.425,3.174,3.183v22.417h22.426c1.749,0,3.174,1.425,3.174,3.183v19.234c0,1.758-1.425,3.183-3.174,3.183
				h-22.426v34.133h-34.133V68.268H88.508z M71.499,124.554c-0.384-1.707,0.35-2.935,0.819-3.516c0.478-0.589,1.519-1.57,3.268-1.57
				h18.28h68.267h18.285c1.749,0,2.79,0.981,3.268,1.57c0.461,0.58,1.195,1.809,0.811,3.516l-12.143,54.648H83.642L71.499,124.554z
				 M42.667,221.868c-7.057,0-12.8-5.743-12.8-12.8s5.743-12.8,12.8-12.8h27.288h116.087h27.291c7.057,0,12.8,5.743,12.8,12.8
				s-5.743,12.8-12.8,12.8h-17.83H60.506H42.667z M179.982,238.935l7.316,76.797H68.713l7.316-76.797H179.982z M25.6,436.541
				c0-10.155,8.26-18.406,18.406-18.406h167.987c10.146,0,18.406,8.252,18.406,18.406v24.258H25.6V436.541z M17.067,494.932v-17.064
				h230.4v-0.003h17.067v0.003h230.4v17.064H17.067z"/>
			<path d="M384,85.335c23.526,0,42.667-19.14,42.667-42.667c0-23.526-19.14-42.667-42.667-42.667
				c-23.526,0-42.667,19.14-42.667,42.667C341.333,66.194,360.474,85.335,384,85.335z M384,17.068c14.114,0,25.6,11.486,25.6,25.6
				s-11.486,25.6-25.6,25.6s-25.6-11.486-25.6-25.6S369.886,17.068,384,17.068z"/>
		</g>
	</g>
</g>
<g>
</g>
<g>
</g>
<g>
</g>
<g>
</g>
<g>
</g>
<g>
</g>
<g>
</g>
<g>
</g>
<g>
</g>
<g>
</g>
<g>
</g>
<g>
</g>
<g>
</g>
<g>
</g>
<g>
</g>
</svg>
