<?xml version="1.0" encoding="iso-8859-1"?>
<!-- Generator: Adobe Illustrator 22.1.0, SVG Export Plug-In . SVG Version: 6.00 Build 0)  -->
<svg xmlns="http://www.w3.org/2000/svg" xmlns:xlink="http://www.w3.org/1999/xlink" version="1.1" id="Layer_3" x="0px" y="0px" viewBox="0 0 64 64" style="enable-background:new 0 0 64 64;" xml:space="preserve" width="512" height="512">
<g>
	<path d="M8,15h5v-2H9v-2h3c0.553,0,1-0.447,1-1V6c0-0.553-0.447-1-1-1H7v2h4v2H8c-0.553,0-1,0.447-1,1v4C7,14.553,7.447,15,8,15z"/>
	<path d="M39,13v2h5c0.553,0,1-0.447,1-1v-4V6c0-0.553-0.447-1-1-1h-5v2h4v2h-4v2h4v2H39z"/>
	<path d="M11,45v-7c0-0.404-0.243-0.77-0.617-0.924c-0.374-0.156-0.804-0.07-1.09,0.217l-3,3l1.414,1.414L9,40.414V45H7v2h6v-2H11z"/>
	<path d="M45,23v-2h-5c-0.553,0-1,0.447-1,1v4c0,0.553,0.447,1,1,1h3v2h-4v2h5c0.553,0,1-0.447,1-1v-4c0-0.553-0.447-1-1-1h-3v-2H45   z"/>
	<path d="M63.583,29.407l-2.99-2.99c-0.375-0.375-1.039-0.375-1.414,0l-4.981,4.982L51,34.597V2c0-0.553-0.447-1-1-1H2   C1.447,1,1,1.447,1,2v48c0,0.553,0.447,1,1,1h32.596l-3.318,3.317c-0.063,0.063-0.103,0.143-0.147,0.219l-0.015-0.008l-3.985,6.976   c-0.224,0.392-0.158,0.885,0.161,1.203C27.485,62.899,27.741,63,28,63c0.17,0,0.341-0.043,0.496-0.132l6.976-3.985l-0.008-0.015   c0.076-0.044,0.156-0.083,0.219-0.147L43.404,51H50c0.553,0,1-0.447,1-1v-6.596l7.601-7.601l4.982-4.981   c0.188-0.188,0.293-0.441,0.293-0.707S63.771,29.595,63.583,29.407z M19,33V19h14v14H19z M33,35v14H19V35H33z M17,33H3V19h14V33z    M19,17V3h14v14H19z M35,19h14v14H35V19z M49,17H35V3h14V17z M17,3v14H3V3H17z M3,35h14v14H3V35z M35,49V35h14v1.596L36.596,49H35z    M32.204,56.657l1.139,1.139l-2.656,1.518L32.204,56.657z M49,49h-3.596L49,45.404V49z M34.976,56.601l-1.576-1.576l21.505-21.504   l1.575,1.575L34.976,56.601z M57.894,33.682l-1.575-1.575l3.567-3.568l1.576,1.576L57.894,33.682z"/>
	<rect x="35" y="61" width="19" height="2"/>
	<rect x="56" y="61" width="2" height="2"/>
</g>
</svg>
