<svg id="Layer_1" enable-background="new 0 0 512 512" height="512" viewBox="0 0 512 512" width="512" xmlns="http://www.w3.org/2000/svg"><g><path d="m268.345 408.103-63.934-11.216-15.062-43.259c-3.136-9.007-11.654-15.059-21.196-15.059h-8.242l-3.891-21.659c-.642-3.573-3.751-6.174-7.382-6.174h-50c-3.533 0-6.587 2.466-7.332 5.919l-4.724 21.914h-7.184c-9.542 0-18.06 6.052-21.196 15.059l-15.382 44.182-28.675 11.404c-8.593 3.417-14.145 11.599-14.145 20.842v47.076c0 4.142 3.358 7.5 7.5 7.5h26.973c3.444 15.634 17.423 27.368 34.094 27.368s30.65-11.734 34.094-27.368h82.23c3.444 15.634 17.423 27.368 34.094 27.368s30.65-11.734 34.094-27.368h26.328c4.142 0 7.5-3.358 7.5-7.5v-46.937c0-10.914-7.806-20.206-18.562-22.092zm-163.651-82.368h37.671l2.306 12.833h-42.744zm.413 27.833h63.047c3.166 0 5.99 2.006 7.03 4.991l13.04 37.453h-97.895zm113.878 143.432c-10.977 0-19.907-8.913-19.907-19.868s8.93-19.868 19.907-19.868 19.908 8.913 19.908 19.868-8.931 19.868-19.908 19.868zm52.922-27.368h-18.828c-3.444-15.634-17.423-27.368-34.094-27.368s-30.65 11.734-34.094 27.368h-82.226c-3.134-14.308-15.06-25.451-30.163-27.147-4.11-.46-7.828 2.5-8.29 6.616s2.5 7.828 6.616 8.29c10.06 1.13 17.646 9.617 17.646 19.741 0 10.955-8.93 19.868-19.907 19.868s-19.908-8.913-19.908-19.868c0-3.308.829-6.58 2.396-9.46 1.98-3.639.635-8.193-3.003-10.172-3.639-1.98-8.193-.635-10.172 3.003-1.559 2.865-2.702 5.945-3.403 9.129h-19.477v-39.576c0-3.062 1.84-5.771 4.688-6.904l31.859-12.671c2.022-.805 3.596-2.448 4.312-4.503l16.509-47.418c1.04-2.985 3.865-4.991 7.03-4.991h9.825l-16.53 47.478c-.798 2.293-.437 4.832.97 6.811s3.685 3.155 6.113 3.155h118.347l67.63 11.865c3.565.625 6.154 3.704 6.154 7.319z"/><path d="m122.627 425.135h-14.853c-4.142 0-7.5 3.358-7.5 7.5s3.358 7.5 7.5 7.5h14.853c4.142 0 7.5-3.358 7.5-7.5s-3.357-7.5-7.5-7.5z"/><path d="m417.859 0c-51.91 0-94.141 42.2-94.141 94.07 0 38.768 24.039 73.729 60.053 87.711l28.107 37.151c1.417 1.874 3.631 2.975 5.981 2.975s4.563-1.101 5.981-2.975l28.108-37.151c36.013-13.983 60.052-48.944 60.052-87.711 0-51.87-42.231-94.07-94.141-94.07zm26.876 168.466c-1.367.493-2.56 1.372-3.437 2.53l-23.439 30.98-23.439-30.98c-.876-1.159-2.07-2.038-3.437-2.53-31.262-11.275-52.266-41.172-52.266-74.396 0-43.599 35.502-79.07 79.141-79.07s79.142 35.471 79.142 79.07c0 33.223-21.004 63.121-52.265 74.396z"/><path d="m417.859 45.809c-27.156 0-49.249 22.078-49.249 49.214 0 4.142 3.358 7.5 7.5 7.5s7.5-3.358 7.5-7.5c0-18.866 15.364-34.214 34.249-34.214s34.249 15.349 34.249 34.214c0 18.866-15.364 34.215-34.249 34.215-9.618 0-18.525-3.876-25.081-10.915-2.823-3.032-7.57-3.2-10.6-.377-3.031 2.823-3.2 7.569-.377 10.6 9.288 9.973 22.43 15.692 36.058 15.692 27.156 0 49.249-22.078 49.249-49.215 0-27.136-22.093-49.214-49.249-49.214z"/><path d="m336.493 249.725h-162.201c-40.583 0-73.6-33.017-73.6-73.601s33.017-73.601 73.6-73.601h117.101c4.142 0 7.5-3.358 7.5-7.5s-3.358-7.5-7.5-7.5h-117.101c-48.854 0-88.6 39.746-88.6 88.601s39.746 88.601 88.6 88.601h162.201c40.583 0 73.6 33.017 73.6 73.601 0 40.583-33.017 73.6-73.6 73.6h-21.101c-4.142 0-7.5 3.358-7.5 7.5s3.358 7.5 7.5 7.5h21.101c48.854 0 88.6-39.746 88.6-88.601 0-48.854-39.745-88.6-88.6-88.6z"/></g></svg>