<?xml version="1.0" encoding="iso-8859-1"?>
<!-- Generator: Adobe Illustrator 19.0.0, SVG Export Plug-In . SVG Version: 6.00 Build 0)  -->
<svg version="1.1" id="Capa_1" xmlns="http://www.w3.org/2000/svg" xmlns:xlink="http://www.w3.org/1999/xlink" x="0px" y="0px"
	 viewBox="0 0 462.872 462.872" style="enable-background:new 0 0 462.872 462.872;" xml:space="preserve">
<path style="fill:#FFFFFF;" d="M96.864,209.858l38.24-53.28l38.24,44.4l-31.92,42.48L96.864,209.858z"/>
<g>
	<circle style="fill:#EEEEEE;" cx="135.104" cy="134.098" r="22.48"/>
	<circle style="fill:#EEEEEE;" cx="230.784" cy="102.098" r="22.48"/>
</g>
<path style="fill:#FFFFFF;" d="M288.064,200.818l38.08-44.24l38.32,53.36l-44.24,33.52L288.064,200.818z"/>
<g>
	<circle style="fill:#EEEEEE;" cx="326.544" cy="134.098" r="22.48"/>
	<path style="fill:#EEEEEE;" d="M71.664,306.098v77.04h318.24v-38.56v-38.48H71.664z"/>
	<circle style="fill:#EEEEEE;" cx="431.744" cy="139.458" r="22.48"/>
	<circle style="fill:#EEEEEE;" cx="30.464" cy="140.178" r="22.48"/>
</g>
<path style="fill:#FFFFFF;" d="M71.664,306.098l-36.64-143.04l106.4,80.4l89.36-118.88l89.44,118.88l106.4-80.4l-36.72,143.04
	L71.664,306.098z"/>
<path style="fill:#35231A;" d="M431.744,108.978c-16.789-0.021-30.417,13.572-30.439,30.361
	c-0.012,9.351,4.281,18.187,11.639,23.959l-46.8,35.36l-26.64-37.12c15.303-7.118,21.939-25.294,14.821-40.597
	c-7.118-15.303-25.294-21.939-40.597-14.821c-15.303,7.118-21.939,25.294-14.821,40.597c2.756,5.926,7.34,10.812,13.077,13.941
	l-23.52,27.36l-44.16-58.72c15.087-7.467,21.264-25.75,13.797-40.837s-25.75-21.264-40.837-13.797
	c-15.087,7.467-21.264,25.75-13.797,40.837c2.963,5.987,7.811,10.834,13.797,13.797l-44.32,58.96l-23.6-27.36
	c14.874-7.883,20.542-26.33,12.659-41.204c-7.883-14.874-26.33-20.542-41.204-12.659c-14.874,7.883-20.542,26.33-12.659,41.204
	c3.027,5.712,7.791,10.313,13.604,13.139l-26.64,37.12l-45.68-34.64c13.096-10.506,15.196-29.639,4.69-42.736
	s-29.639-15.196-42.736-4.69s-15.196,29.639-4.69,42.736c5.398,6.729,13.402,10.848,22.016,11.33l34.96,136.56v76.32
	c0,4.418,3.582,8,8,8h318.24c4.418,0,8-3.582,8-8v-76.32l35.2-137.28c16.812-0.376,30.136-14.308,29.76-31.12
	s-14.308-30.136-31.12-29.76V108.978z M326.544,119.378c7.997,0,14.48,6.483,14.48,14.48s-6.483,14.48-14.48,14.48
	c-7.997,0-14.48-6.483-14.48-14.48S318.547,119.378,326.544,119.378L326.544,119.378z M325.584,169.298l27.84,38.8l-32,24
	l-23.12-30.96L325.584,169.298z M216.304,102.098c0.002-7.997,6.486-14.478,14.484-14.476c7.997,0.002,14.478,6.486,14.476,14.484
	c-0.002,7.871-6.291,14.299-14.16,14.473c-7.995,0.177-14.62-6.161-14.796-14.156C216.305,102.314,216.304,102.206,216.304,102.098
	L216.304,102.098z M120.304,134.098c0.002-7.997,6.486-14.478,14.484-14.476s14.478,6.486,14.476,14.484
	c-0.002,7.871-6.291,14.299-14.16,14.473c-7.997,0-14.48-6.483-14.48-14.48H120.304z M135.344,169.538l27.44,32l-23.28,30.96l-32-24
	L135.344,169.538z M30.464,154.738c-7.997,0-14.48-6.483-14.48-14.48s6.483-14.48,14.48-14.48c7.966,0,14.436,6.434,14.48,14.4
	c0.044,7.997-6.403,14.516-14.4,14.56C30.518,154.738,30.491,154.738,30.464,154.738z M381.904,336.578h-51.12c-4.418,0-8,3.582-8,8
	s3.582,8,8,8h51.12v22.8H79.664v-22.8h51.12c4.418,0,8-3.582,8-8s-3.582-8-8-8h-51.12v-22.48h302.24V336.578z M383.664,298.018
	H77.904l-29.44-114.64l88,66.64c3.535,2.651,8.549,1.935,11.2-1.6l83.44-110.56l83.04,110.4c2.651,3.535,7.665,4.251,11.2,1.6l0,0
	l88-66.64L383.664,298.018z M431.664,154.018c-7.997,0-14.48-6.483-14.48-14.48s6.483-14.48,14.48-14.48
	c7.997,0,14.48,6.483,14.48,14.48c-0.044,7.935-6.465,14.356-14.4,14.4L431.664,154.018z"/>
<g>
</g>
<g>
</g>
<g>
</g>
<g>
</g>
<g>
</g>
<g>
</g>
<g>
</g>
<g>
</g>
<g>
</g>
<g>
</g>
<g>
</g>
<g>
</g>
<g>
</g>
<g>
</g>
<g>
</g>
</svg>
